<mxfile host="app.diagrams.net" agent="Mozilla/5.0 (X11; Linux x86_64; rv:135.0) Gecko/20100101 Firefox/135.0" version="26.1.1">
  <diagram name="Page-1" id="fFQ6WQgZWspTpNPEQZPx">
    <mxGraphModel dx="1540" dy="1315" grid="1" gridSize="10" guides="1" tooltips="1" connect="1" arrows="1" fold="1" page="1" pageScale="1" pageWidth="850" pageHeight="1100" math="0" shadow="0">
      <root>
        <mxCell id="0" />
        <mxCell id="1" parent="0" />
        <mxCell id="LJ91YOR7zUgHexyTRzu9-49" value="VPC" style="points=[[0,0],[0.25,0],[0.5,0],[0.75,0],[1,0],[1,0.25],[1,0.5],[1,0.75],[1,1],[0.75,1],[0.5,1],[0.25,1],[0,1],[0,0.75],[0,0.5],[0,0.25]];outlineConnect=0;gradientColor=none;html=1;whiteSpace=wrap;fontSize=12;fontStyle=0;container=1;pointerEvents=0;collapsible=0;recursiveResize=0;shape=mxgraph.aws4.group;grIcon=mxgraph.aws4.group_vpc2;strokeColor=#8C4FFF;fillColor=none;verticalAlign=top;align=left;spacingLeft=30;fontColor=#AAB7B8;dashed=0;" parent="1" vertex="1">
          <mxGeometry x="1290" y="240" width="1210" height="380" as="geometry" />
        </mxCell>
        <mxCell id="LJ91YOR7zUgHexyTRzu9-116" style="edgeStyle=orthogonalEdgeStyle;rounded=0;orthogonalLoop=1;jettySize=auto;html=1;" parent="LJ91YOR7zUgHexyTRzu9-49" source="LJ91YOR7zUgHexyTRzu9-53" target="LJ91YOR7zUgHexyTRzu9-54" edge="1">
          <mxGeometry relative="1" as="geometry" />
        </mxCell>
        <mxCell id="LJ91YOR7zUgHexyTRzu9-53" value="NGW public subnet" style="points=[[0,0],[0.25,0],[0.5,0],[0.75,0],[1,0],[1,0.25],[1,0.5],[1,0.75],[1,1],[0.75,1],[0.5,1],[0.25,1],[0,1],[0,0.75],[0,0.5],[0,0.25]];outlineConnect=0;gradientColor=none;html=1;whiteSpace=wrap;fontSize=12;fontStyle=0;container=1;pointerEvents=0;collapsible=0;recursiveResize=0;shape=mxgraph.aws4.group;grIcon=mxgraph.aws4.group_security_group;grStroke=0;strokeColor=#7AA116;fillColor=#F2F6E8;verticalAlign=top;align=left;spacingLeft=30;fontColor=#248814;dashed=0;" parent="LJ91YOR7zUgHexyTRzu9-49" vertex="1">
          <mxGeometry x="330" y="50" width="290" height="160" as="geometry" />
        </mxCell>
        <mxCell id="LJ91YOR7zUgHexyTRzu9-70" value="&lt;div&gt;NAT&lt;/div&gt;&lt;div&gt;gateway&lt;/div&gt;" style="sketch=0;outlineConnect=0;fontColor=#232F3E;gradientColor=none;fillColor=#8C4FFF;strokeColor=none;dashed=0;verticalLabelPosition=bottom;verticalAlign=top;align=center;html=1;fontSize=12;fontStyle=0;aspect=fixed;pointerEvents=1;shape=mxgraph.aws4.nat_gateway;" parent="LJ91YOR7zUgHexyTRzu9-53" vertex="1">
          <mxGeometry x="45" y="40" width="78" height="78" as="geometry" />
        </mxCell>
        <mxCell id="LJ91YOR7zUgHexyTRzu9-71" value="&lt;div&gt;Route table&lt;/div&gt;&lt;div&gt;(to firewall endpoint)&lt;/div&gt;" style="sketch=0;outlineConnect=0;fontColor=#232F3E;gradientColor=none;fillColor=#8C4FFF;strokeColor=none;dashed=0;verticalLabelPosition=bottom;verticalAlign=top;align=center;html=1;fontSize=12;fontStyle=0;aspect=fixed;pointerEvents=1;shape=mxgraph.aws4.route_table;" parent="LJ91YOR7zUgHexyTRzu9-53" vertex="1">
          <mxGeometry x="177" y="41" width="78" height="76" as="geometry" />
        </mxCell>
        <mxCell id="0TdQGq1oMp6gD4ybkivO-7" style="edgeStyle=orthogonalEdgeStyle;rounded=0;orthogonalLoop=1;jettySize=auto;html=1;curved=1;" parent="LJ91YOR7zUgHexyTRzu9-49" source="LJ91YOR7zUgHexyTRzu9-54" target="LJ91YOR7zUgHexyTRzu9-117" edge="1">
          <mxGeometry relative="1" as="geometry">
            <Array as="points">
              <mxPoint x="1020" y="130" />
              <mxPoint x="1020" y="291" />
            </Array>
          </mxGeometry>
        </mxCell>
        <mxCell id="LJ91YOR7zUgHexyTRzu9-54" value="Firewall public subnet" style="points=[[0,0],[0.25,0],[0.5,0],[0.75,0],[1,0],[1,0.25],[1,0.5],[1,0.75],[1,1],[0.75,1],[0.5,1],[0.25,1],[0,1],[0,0.75],[0,0.5],[0,0.25]];outlineConnect=0;gradientColor=none;html=1;whiteSpace=wrap;fontSize=12;fontStyle=0;container=1;pointerEvents=0;collapsible=0;recursiveResize=0;shape=mxgraph.aws4.group;grIcon=mxgraph.aws4.group_security_group;grStroke=0;strokeColor=#7AA116;fillColor=#F2F6E8;verticalAlign=top;align=left;spacingLeft=30;fontColor=#248814;dashed=0;" parent="LJ91YOR7zUgHexyTRzu9-49" vertex="1">
          <mxGeometry x="670" y="50" width="290" height="160" as="geometry" />
        </mxCell>
        <mxCell id="LJ91YOR7zUgHexyTRzu9-55" value="&lt;div&gt;Network&lt;/div&gt;&lt;div&gt;firewall&lt;/div&gt;" style="image;aspect=fixed;html=1;points=[];align=center;fontSize=12;image=img/lib/azure2/networking/Firewalls.svg;labelBackgroundColor=light-dark(#f2f6e8, #ededed);" parent="LJ91YOR7zUgHexyTRzu9-54" vertex="1">
          <mxGeometry x="60" y="50" width="71" height="60" as="geometry" />
        </mxCell>
        <mxCell id="LJ91YOR7zUgHexyTRzu9-72" value="&lt;div&gt;Route table&lt;/div&gt;&lt;div&gt;(to internet gateway)&lt;/div&gt;" style="sketch=0;outlineConnect=0;fontColor=#232F3E;gradientColor=none;fillColor=#8C4FFF;strokeColor=none;dashed=0;verticalLabelPosition=bottom;verticalAlign=top;align=center;html=1;fontSize=12;fontStyle=0;aspect=fixed;pointerEvents=1;shape=mxgraph.aws4.route_table;" parent="LJ91YOR7zUgHexyTRzu9-54" vertex="1">
          <mxGeometry x="180" y="42" width="78" height="76" as="geometry" />
        </mxCell>
        <mxCell id="LJ91YOR7zUgHexyTRzu9-117" value="Internet gateway" style="sketch=0;outlineConnect=0;fontColor=#232F3E;gradientColor=none;fillColor=#8C4FFF;strokeColor=none;dashed=0;verticalLabelPosition=bottom;verticalAlign=top;align=center;html=1;fontSize=12;fontStyle=0;aspect=fixed;pointerEvents=1;shape=mxgraph.aws4.internet_gateway;" parent="LJ91YOR7zUgHexyTRzu9-49" vertex="1">
          <mxGeometry x="1070" y="252" width="78" height="78" as="geometry" />
        </mxCell>
        <mxCell id="6ljAMsKgbwpQDlD5m_k1-50" style="edgeStyle=orthogonalEdgeStyle;rounded=0;orthogonalLoop=1;jettySize=auto;html=1;" edge="1" parent="LJ91YOR7zUgHexyTRzu9-49" source="6ljAMsKgbwpQDlD5m_k1-47" target="LJ91YOR7zUgHexyTRzu9-53">
          <mxGeometry relative="1" as="geometry" />
        </mxCell>
        <mxCell id="6ljAMsKgbwpQDlD5m_k1-47" value="TGW private subnet" style="points=[[0,0],[0.25,0],[0.5,0],[0.75,0],[1,0],[1,0.25],[1,0.5],[1,0.75],[1,1],[0.75,1],[0.5,1],[0.25,1],[0,1],[0,0.75],[0,0.5],[0,0.25]];outlineConnect=0;gradientColor=none;html=1;whiteSpace=wrap;fontSize=12;fontStyle=0;container=1;pointerEvents=0;collapsible=0;recursiveResize=0;shape=mxgraph.aws4.group;grIcon=mxgraph.aws4.group_security_group;grStroke=0;strokeColor=#00A4A6;fillColor=#E6F6F7;verticalAlign=top;align=left;spacingLeft=30;fontColor=#147EBA;dashed=0;" vertex="1" parent="LJ91YOR7zUgHexyTRzu9-49">
          <mxGeometry x="10" y="50" width="290" height="160" as="geometry" />
        </mxCell>
        <mxCell id="6ljAMsKgbwpQDlD5m_k1-48" value="&lt;div&gt;Route table&lt;/div&gt;&lt;div&gt;(to NAT gateway)&lt;/div&gt;" style="sketch=0;outlineConnect=0;fontColor=#232F3E;gradientColor=none;fillColor=#8C4FFF;strokeColor=none;dashed=0;verticalLabelPosition=bottom;verticalAlign=top;align=center;html=1;fontSize=12;fontStyle=0;aspect=fixed;pointerEvents=1;shape=mxgraph.aws4.route_table;" vertex="1" parent="6ljAMsKgbwpQDlD5m_k1-47">
          <mxGeometry x="173" y="41" width="78" height="76" as="geometry" />
        </mxCell>
        <mxCell id="6ljAMsKgbwpQDlD5m_k1-49" value="&lt;div&gt;Transit gateway&lt;/div&gt;&lt;div&gt;network interface&lt;/div&gt;" style="sketch=0;outlineConnect=0;fontColor=#232F3E;gradientColor=none;fillColor=#8C4FFF;strokeColor=none;dashed=0;verticalLabelPosition=bottom;verticalAlign=top;align=center;html=1;fontSize=12;fontStyle=0;aspect=fixed;pointerEvents=1;shape=mxgraph.aws4.elastic_network_interface;" vertex="1" parent="6ljAMsKgbwpQDlD5m_k1-47">
          <mxGeometry x="45" y="40" width="78" height="78" as="geometry" />
        </mxCell>
        <mxCell id="6ljAMsKgbwpQDlD5m_k1-34" value="&lt;div&gt;Route table&lt;/div&gt;&lt;div&gt;(to NAT gateway)&lt;/div&gt;" style="sketch=0;outlineConnect=0;fontColor=#232F3E;gradientColor=none;fillColor=#8C4FFF;strokeColor=none;dashed=0;verticalLabelPosition=bottom;verticalAlign=top;align=center;html=1;fontSize=12;fontStyle=0;aspect=fixed;pointerEvents=1;shape=mxgraph.aws4.route_table;" vertex="1" parent="LJ91YOR7zUgHexyTRzu9-49">
          <mxGeometry x="1070" y="70" width="78" height="76" as="geometry" />
        </mxCell>
        <mxCell id="6ljAMsKgbwpQDlD5m_k1-35" value="" style="shape=table;startSize=0;container=1;collapsible=0;childLayout=tableLayout;" vertex="1" parent="LJ91YOR7zUgHexyTRzu9-49">
          <mxGeometry x="1295" y="60" width="230" height="120" as="geometry" />
        </mxCell>
        <mxCell id="6ljAMsKgbwpQDlD5m_k1-36" value="" style="shape=tableRow;horizontal=0;startSize=0;swimlaneHead=0;swimlaneBody=0;strokeColor=inherit;top=0;left=0;bottom=0;right=0;collapsible=0;dropTarget=0;fillColor=none;points=[[0,0.5],[1,0.5]];portConstraint=eastwest;" vertex="1" parent="6ljAMsKgbwpQDlD5m_k1-35">
          <mxGeometry width="230" height="40" as="geometry" />
        </mxCell>
        <mxCell id="6ljAMsKgbwpQDlD5m_k1-37" value="Destination" style="shape=partialRectangle;html=1;whiteSpace=wrap;connectable=0;strokeColor=#666666;overflow=hidden;fillColor=#f5f5f5;top=0;left=0;bottom=0;right=1;pointerEvents=1;align=center;fontColor=#333333;" vertex="1" parent="6ljAMsKgbwpQDlD5m_k1-36">
          <mxGeometry width="115" height="40" as="geometry">
            <mxRectangle width="115" height="40" as="alternateBounds" />
          </mxGeometry>
        </mxCell>
        <mxCell id="6ljAMsKgbwpQDlD5m_k1-38" value="Target" style="shape=partialRectangle;html=1;whiteSpace=wrap;connectable=0;strokeColor=#666666;overflow=hidden;fillColor=#f5f5f5;top=0;left=1;bottom=0;right=0;pointerEvents=1;fontColor=#333333;" vertex="1" parent="6ljAMsKgbwpQDlD5m_k1-36">
          <mxGeometry x="115" width="115" height="40" as="geometry">
            <mxRectangle width="115" height="40" as="alternateBounds" />
          </mxGeometry>
        </mxCell>
        <mxCell id="6ljAMsKgbwpQDlD5m_k1-39" style="shape=tableRow;horizontal=0;startSize=0;swimlaneHead=0;swimlaneBody=0;strokeColor=inherit;top=0;left=0;bottom=0;right=0;collapsible=0;dropTarget=0;fillColor=none;points=[[0,0.5],[1,0.5]];portConstraint=eastwest;" vertex="1" parent="6ljAMsKgbwpQDlD5m_k1-35">
          <mxGeometry y="40" width="230" height="40" as="geometry" />
        </mxCell>
        <mxCell id="6ljAMsKgbwpQDlD5m_k1-40" value="Hub VPC" style="shape=partialRectangle;html=1;whiteSpace=wrap;connectable=0;strokeColor=inherit;overflow=hidden;fillColor=none;top=0;left=0;bottom=0;right=0;pointerEvents=1;" vertex="1" parent="6ljAMsKgbwpQDlD5m_k1-39">
          <mxGeometry width="115" height="40" as="geometry">
            <mxRectangle width="115" height="40" as="alternateBounds" />
          </mxGeometry>
        </mxCell>
        <mxCell id="6ljAMsKgbwpQDlD5m_k1-41" value="local" style="shape=partialRectangle;html=1;whiteSpace=wrap;connectable=0;strokeColor=inherit;overflow=hidden;fillColor=none;top=0;left=0;bottom=0;right=0;pointerEvents=1;" vertex="1" parent="6ljAMsKgbwpQDlD5m_k1-39">
          <mxGeometry x="115" width="115" height="40" as="geometry">
            <mxRectangle width="115" height="40" as="alternateBounds" />
          </mxGeometry>
        </mxCell>
        <mxCell id="6ljAMsKgbwpQDlD5m_k1-42" value="" style="shape=tableRow;horizontal=0;startSize=0;swimlaneHead=0;swimlaneBody=0;strokeColor=inherit;top=0;left=0;bottom=0;right=0;collapsible=0;dropTarget=0;fillColor=none;points=[[0,0.5],[1,0.5]];portConstraint=eastwest;" vertex="1" parent="6ljAMsKgbwpQDlD5m_k1-35">
          <mxGeometry y="80" width="230" height="40" as="geometry" />
        </mxCell>
        <mxCell id="6ljAMsKgbwpQDlD5m_k1-43" value="NGW subnet" style="shape=partialRectangle;html=1;whiteSpace=wrap;connectable=0;strokeColor=#9673a6;overflow=hidden;fillColor=#e1d5e7;top=0;left=0;bottom=0;right=0;pointerEvents=1;" vertex="1" parent="6ljAMsKgbwpQDlD5m_k1-42">
          <mxGeometry width="115" height="40" as="geometry">
            <mxRectangle width="115" height="40" as="alternateBounds" />
          </mxGeometry>
        </mxCell>
        <mxCell id="6ljAMsKgbwpQDlD5m_k1-44" value="firewall-endpoint" style="shape=partialRectangle;html=1;whiteSpace=wrap;connectable=0;strokeColor=#9673a6;overflow=hidden;fillColor=#e1d5e7;top=0;left=0;bottom=0;right=0;pointerEvents=1;" vertex="1" parent="6ljAMsKgbwpQDlD5m_k1-42">
          <mxGeometry x="115" width="115" height="40" as="geometry">
            <mxRectangle width="115" height="40" as="alternateBounds" />
          </mxGeometry>
        </mxCell>
        <mxCell id="6ljAMsKgbwpQDlD5m_k1-45" style="edgeStyle=orthogonalEdgeStyle;rounded=0;orthogonalLoop=1;jettySize=auto;html=1;dashed=1;strokeColor=light-dark(#613583, #ededed);" edge="1" parent="LJ91YOR7zUgHexyTRzu9-49" source="6ljAMsKgbwpQDlD5m_k1-34" target="6ljAMsKgbwpQDlD5m_k1-36">
          <mxGeometry relative="1" as="geometry">
            <Array as="points">
              <mxPoint x="1270" y="110" />
              <mxPoint x="1270" y="90" />
            </Array>
          </mxGeometry>
        </mxCell>
        <mxCell id="0TdQGq1oMp6gD4ybkivO-5" value="" style="shape=flexArrow;endArrow=classic;html=1;rounded=0;width=44;endSize=12.902857142857142;strokeColor=light-dark(#613583, #ededed);fontColor=light-dark(#613583, #ededed);" parent="LJ91YOR7zUgHexyTRzu9-49" edge="1">
          <mxGeometry width="50" height="50" relative="1" as="geometry">
            <mxPoint x="620" y="350" as="sourcePoint" />
            <mxPoint x="-404.70588235294116" y="350" as="targetPoint" />
          </mxGeometry>
        </mxCell>
        <mxCell id="0TdQGq1oMp6gD4ybkivO-6" value="&lt;font style=&quot;font-size: 15px;&quot;&gt;Traffic from internet routed to the spoke VPC (DESTINATION) through the transit gateway (TARGET)&lt;/font&gt;" style="edgeLabel;html=1;align=center;verticalAlign=middle;resizable=0;points=[];fontColor=light-dark(#613583, #ededed);" parent="0TdQGq1oMp6gD4ybkivO-5" vertex="1" connectable="0">
          <mxGeometry x="0.1673" y="4" relative="1" as="geometry">
            <mxPoint x="33" y="-4" as="offset" />
          </mxGeometry>
        </mxCell>
        <mxCell id="LJ91YOR7zUgHexyTRzu9-119" value="Public internet" style="sketch=0;outlineConnect=0;fontColor=#232F3E;gradientColor=none;fillColor=#232F3D;strokeColor=none;dashed=0;verticalLabelPosition=bottom;verticalAlign=top;align=center;html=1;fontSize=12;fontStyle=0;aspect=fixed;pointerEvents=1;shape=mxgraph.aws4.internet;" parent="1" vertex="1">
          <mxGeometry x="2580" y="502" width="94.25" height="58" as="geometry" />
        </mxCell>
        <mxCell id="Brfyr_elFCpzcNNpJkE2-46" style="edgeStyle=orthogonalEdgeStyle;rounded=0;orthogonalLoop=1;jettySize=auto;html=1;dashed=1;strokeColor=light-dark(#613583, #ededed);" parent="1" source="LJ91YOR7zUgHexyTRzu9-71" target="6ljAMsKgbwpQDlD5m_k1-2" edge="1">
          <mxGeometry relative="1" as="geometry">
            <Array as="points">
              <mxPoint x="1836" y="70" />
            </Array>
            <mxPoint x="1640" y="70" as="targetPoint" />
          </mxGeometry>
        </mxCell>
        <mxCell id="Brfyr_elFCpzcNNpJkE2-73" style="edgeStyle=orthogonalEdgeStyle;rounded=0;orthogonalLoop=1;jettySize=auto;html=1;dashed=1;strokeColor=light-dark(#613583, #ededed);" parent="1" source="LJ91YOR7zUgHexyTRzu9-72" target="6ljAMsKgbwpQDlD5m_k1-15" edge="1">
          <mxGeometry relative="1" as="geometry">
            <Array as="points">
              <mxPoint x="2180" y="65" />
            </Array>
            <mxPoint x="1960" y="370" as="sourcePoint" />
            <mxPoint x="1980" y="65.27999999999997" as="targetPoint" />
          </mxGeometry>
        </mxCell>
        <mxCell id="6ljAMsKgbwpQDlD5m_k1-1" value="" style="shape=table;startSize=0;container=1;collapsible=0;childLayout=tableLayout;" vertex="1" parent="1">
          <mxGeometry x="1890" y="50" width="230" height="160" as="geometry" />
        </mxCell>
        <mxCell id="6ljAMsKgbwpQDlD5m_k1-2" value="" style="shape=tableRow;horizontal=0;startSize=0;swimlaneHead=0;swimlaneBody=0;strokeColor=inherit;top=0;left=0;bottom=0;right=0;collapsible=0;dropTarget=0;fillColor=none;points=[[0,0.5],[1,0.5]];portConstraint=eastwest;" vertex="1" parent="6ljAMsKgbwpQDlD5m_k1-1">
          <mxGeometry width="230" height="40" as="geometry" />
        </mxCell>
        <mxCell id="6ljAMsKgbwpQDlD5m_k1-3" value="Destination" style="shape=partialRectangle;html=1;whiteSpace=wrap;connectable=0;strokeColor=#666666;overflow=hidden;fillColor=#f5f5f5;top=0;left=0;bottom=0;right=1;pointerEvents=1;align=center;fontColor=#333333;" vertex="1" parent="6ljAMsKgbwpQDlD5m_k1-2">
          <mxGeometry width="120" height="40" as="geometry">
            <mxRectangle width="120" height="40" as="alternateBounds" />
          </mxGeometry>
        </mxCell>
        <mxCell id="6ljAMsKgbwpQDlD5m_k1-4" value="Target" style="shape=partialRectangle;html=1;whiteSpace=wrap;connectable=0;strokeColor=#666666;overflow=hidden;fillColor=#f5f5f5;top=0;left=1;bottom=0;right=0;pointerEvents=1;fontColor=#333333;" vertex="1" parent="6ljAMsKgbwpQDlD5m_k1-2">
          <mxGeometry x="120" width="110" height="40" as="geometry">
            <mxRectangle width="110" height="40" as="alternateBounds" />
          </mxGeometry>
        </mxCell>
        <mxCell id="6ljAMsKgbwpQDlD5m_k1-5" style="shape=tableRow;horizontal=0;startSize=0;swimlaneHead=0;swimlaneBody=0;strokeColor=inherit;top=0;left=0;bottom=0;right=0;collapsible=0;dropTarget=0;fillColor=none;points=[[0,0.5],[1,0.5]];portConstraint=eastwest;" vertex="1" parent="6ljAMsKgbwpQDlD5m_k1-1">
          <mxGeometry y="40" width="230" height="40" as="geometry" />
        </mxCell>
        <mxCell id="6ljAMsKgbwpQDlD5m_k1-6" value="Hub VPC" style="shape=partialRectangle;html=1;whiteSpace=wrap;connectable=0;strokeColor=inherit;overflow=hidden;fillColor=none;top=0;left=0;bottom=0;right=0;pointerEvents=1;" vertex="1" parent="6ljAMsKgbwpQDlD5m_k1-5">
          <mxGeometry width="120" height="40" as="geometry">
            <mxRectangle width="120" height="40" as="alternateBounds" />
          </mxGeometry>
        </mxCell>
        <mxCell id="6ljAMsKgbwpQDlD5m_k1-7" value="local" style="shape=partialRectangle;html=1;whiteSpace=wrap;connectable=0;strokeColor=inherit;overflow=hidden;fillColor=none;top=0;left=0;bottom=0;right=0;pointerEvents=1;" vertex="1" parent="6ljAMsKgbwpQDlD5m_k1-5">
          <mxGeometry x="120" width="110" height="40" as="geometry">
            <mxRectangle width="110" height="40" as="alternateBounds" />
          </mxGeometry>
        </mxCell>
        <mxCell id="6ljAMsKgbwpQDlD5m_k1-8" value="" style="shape=tableRow;horizontal=0;startSize=0;swimlaneHead=0;swimlaneBody=0;strokeColor=inherit;top=0;left=0;bottom=0;right=0;collapsible=0;dropTarget=0;fillColor=none;points=[[0,0.5],[1,0.5]];portConstraint=eastwest;" vertex="1" parent="6ljAMsKgbwpQDlD5m_k1-1">
          <mxGeometry y="80" width="230" height="40" as="geometry" />
        </mxCell>
        <mxCell id="6ljAMsKgbwpQDlD5m_k1-9" value="0.0.0.0/0" style="shape=partialRectangle;html=1;whiteSpace=wrap;connectable=0;strokeColor=inherit;overflow=hidden;fillColor=none;top=0;left=0;bottom=0;right=0;pointerEvents=1;" vertex="1" parent="6ljAMsKgbwpQDlD5m_k1-8">
          <mxGeometry width="120" height="40" as="geometry">
            <mxRectangle width="120" height="40" as="alternateBounds" />
          </mxGeometry>
        </mxCell>
        <mxCell id="6ljAMsKgbwpQDlD5m_k1-10" value="firewall-endpoint" style="shape=partialRectangle;html=1;whiteSpace=wrap;connectable=0;strokeColor=inherit;overflow=hidden;fillColor=none;top=0;left=0;bottom=0;right=0;pointerEvents=1;" vertex="1" parent="6ljAMsKgbwpQDlD5m_k1-8">
          <mxGeometry x="120" width="110" height="40" as="geometry">
            <mxRectangle width="110" height="40" as="alternateBounds" />
          </mxGeometry>
        </mxCell>
        <mxCell id="6ljAMsKgbwpQDlD5m_k1-11" style="shape=tableRow;horizontal=0;startSize=0;swimlaneHead=0;swimlaneBody=0;strokeColor=inherit;top=0;left=0;bottom=0;right=0;collapsible=0;dropTarget=0;fillColor=none;points=[[0,0.5],[1,0.5]];portConstraint=eastwest;" vertex="1" parent="6ljAMsKgbwpQDlD5m_k1-1">
          <mxGeometry y="120" width="230" height="40" as="geometry" />
        </mxCell>
        <mxCell id="6ljAMsKgbwpQDlD5m_k1-12" value="172.16.0.0/12" style="shape=partialRectangle;html=1;whiteSpace=wrap;connectable=0;strokeColor=#9673a6;overflow=hidden;fillColor=#e1d5e7;top=0;left=0;bottom=0;right=0;pointerEvents=1;" vertex="1" parent="6ljAMsKgbwpQDlD5m_k1-11">
          <mxGeometry width="120" height="40" as="geometry">
            <mxRectangle width="120" height="40" as="alternateBounds" />
          </mxGeometry>
        </mxCell>
        <mxCell id="6ljAMsKgbwpQDlD5m_k1-13" value="tgw-id " style="shape=partialRectangle;html=1;whiteSpace=wrap;connectable=0;strokeColor=#9673a6;overflow=hidden;fillColor=#e1d5e7;top=0;left=0;bottom=0;right=0;pointerEvents=1;" vertex="1" parent="6ljAMsKgbwpQDlD5m_k1-11">
          <mxGeometry x="120" width="110" height="40" as="geometry">
            <mxRectangle width="110" height="40" as="alternateBounds" />
          </mxGeometry>
        </mxCell>
        <mxCell id="6ljAMsKgbwpQDlD5m_k1-14" value="" style="shape=table;startSize=0;container=1;collapsible=0;childLayout=tableLayout;" vertex="1" parent="1">
          <mxGeometry x="2240" y="50" width="230" height="120" as="geometry" />
        </mxCell>
        <mxCell id="6ljAMsKgbwpQDlD5m_k1-15" value="" style="shape=tableRow;horizontal=0;startSize=0;swimlaneHead=0;swimlaneBody=0;strokeColor=inherit;top=0;left=0;bottom=0;right=0;collapsible=0;dropTarget=0;fillColor=none;points=[[0,0.5],[1,0.5]];portConstraint=eastwest;" vertex="1" parent="6ljAMsKgbwpQDlD5m_k1-14">
          <mxGeometry width="230" height="40" as="geometry" />
        </mxCell>
        <mxCell id="6ljAMsKgbwpQDlD5m_k1-16" value="Destination" style="shape=partialRectangle;html=1;whiteSpace=wrap;connectable=0;strokeColor=#666666;overflow=hidden;fillColor=#f5f5f5;top=0;left=0;bottom=0;right=1;pointerEvents=1;align=center;fontColor=#333333;" vertex="1" parent="6ljAMsKgbwpQDlD5m_k1-15">
          <mxGeometry width="115" height="40" as="geometry">
            <mxRectangle width="115" height="40" as="alternateBounds" />
          </mxGeometry>
        </mxCell>
        <mxCell id="6ljAMsKgbwpQDlD5m_k1-17" value="Target" style="shape=partialRectangle;html=1;whiteSpace=wrap;connectable=0;strokeColor=#666666;overflow=hidden;fillColor=#f5f5f5;top=0;left=1;bottom=0;right=0;pointerEvents=1;fontColor=#333333;" vertex="1" parent="6ljAMsKgbwpQDlD5m_k1-15">
          <mxGeometry x="115" width="115" height="40" as="geometry">
            <mxRectangle width="115" height="40" as="alternateBounds" />
          </mxGeometry>
        </mxCell>
        <mxCell id="6ljAMsKgbwpQDlD5m_k1-18" style="shape=tableRow;horizontal=0;startSize=0;swimlaneHead=0;swimlaneBody=0;strokeColor=inherit;top=0;left=0;bottom=0;right=0;collapsible=0;dropTarget=0;fillColor=none;points=[[0,0.5],[1,0.5]];portConstraint=eastwest;" vertex="1" parent="6ljAMsKgbwpQDlD5m_k1-14">
          <mxGeometry y="40" width="230" height="40" as="geometry" />
        </mxCell>
        <mxCell id="6ljAMsKgbwpQDlD5m_k1-19" value="Hub VPC" style="shape=partialRectangle;html=1;whiteSpace=wrap;connectable=0;strokeColor=inherit;overflow=hidden;fillColor=none;top=0;left=0;bottom=0;right=0;pointerEvents=1;" vertex="1" parent="6ljAMsKgbwpQDlD5m_k1-18">
          <mxGeometry width="115" height="40" as="geometry">
            <mxRectangle width="115" height="40" as="alternateBounds" />
          </mxGeometry>
        </mxCell>
        <mxCell id="6ljAMsKgbwpQDlD5m_k1-20" value="local" style="shape=partialRectangle;html=1;whiteSpace=wrap;connectable=0;strokeColor=inherit;overflow=hidden;fillColor=none;top=0;left=0;bottom=0;right=0;pointerEvents=1;" vertex="1" parent="6ljAMsKgbwpQDlD5m_k1-18">
          <mxGeometry x="115" width="115" height="40" as="geometry">
            <mxRectangle width="115" height="40" as="alternateBounds" />
          </mxGeometry>
        </mxCell>
        <mxCell id="6ljAMsKgbwpQDlD5m_k1-21" value="" style="shape=tableRow;horizontal=0;startSize=0;swimlaneHead=0;swimlaneBody=0;strokeColor=inherit;top=0;left=0;bottom=0;right=0;collapsible=0;dropTarget=0;fillColor=none;points=[[0,0.5],[1,0.5]];portConstraint=eastwest;" vertex="1" parent="6ljAMsKgbwpQDlD5m_k1-14">
          <mxGeometry y="80" width="230" height="40" as="geometry" />
        </mxCell>
        <mxCell id="6ljAMsKgbwpQDlD5m_k1-22" value="0.0.0.0/0" style="shape=partialRectangle;html=1;whiteSpace=wrap;connectable=0;strokeColor=inherit;overflow=hidden;fillColor=none;top=0;left=0;bottom=0;right=0;pointerEvents=1;" vertex="1" parent="6ljAMsKgbwpQDlD5m_k1-21">
          <mxGeometry width="115" height="40" as="geometry">
            <mxRectangle width="115" height="40" as="alternateBounds" />
          </mxGeometry>
        </mxCell>
        <mxCell id="6ljAMsKgbwpQDlD5m_k1-23" value="igw-id" style="shape=partialRectangle;html=1;whiteSpace=wrap;connectable=0;strokeColor=inherit;overflow=hidden;fillColor=none;top=0;left=0;bottom=0;right=0;pointerEvents=1;" vertex="1" parent="6ljAMsKgbwpQDlD5m_k1-21">
          <mxGeometry x="115" width="115" height="40" as="geometry">
            <mxRectangle width="115" height="40" as="alternateBounds" />
          </mxGeometry>
        </mxCell>
        <mxCell id="0TdQGq1oMp6gD4ybkivO-2" value="" style="shape=flexArrow;endArrow=classic;html=1;rounded=0;width=44;endSize=12.902857142857142;strokeColor=light-dark(#613583, #ededed);fontColor=light-dark(#613583, #ededed);" parent="1" edge="1">
          <mxGeometry width="50" height="50" relative="1" as="geometry">
            <mxPoint x="2674.25" y="650" as="sourcePoint" />
            <mxPoint x="1640" y="650" as="targetPoint" />
          </mxGeometry>
        </mxCell>
        <mxCell id="0TdQGq1oMp6gD4ybkivO-3" value="&lt;font style=&quot;font-size: 15px;&quot;&gt;Traffic from internet routed to NAT gateway (DESTINATION) through the firewall (TARGET)&lt;/font&gt;" style="edgeLabel;html=1;align=center;verticalAlign=middle;resizable=0;points=[];fontColor=light-dark(#613583, #ededed);" parent="0TdQGq1oMp6gD4ybkivO-2" vertex="1" connectable="0">
          <mxGeometry x="0.1673" y="4" relative="1" as="geometry">
            <mxPoint x="69" y="-4" as="offset" />
          </mxGeometry>
        </mxCell>
        <mxCell id="6ljAMsKgbwpQDlD5m_k1-46" style="edgeStyle=orthogonalEdgeStyle;rounded=0;orthogonalLoop=1;jettySize=auto;html=1;startArrow=classic;startFill=1;" edge="1" parent="1" source="LJ91YOR7zUgHexyTRzu9-117" target="LJ91YOR7zUgHexyTRzu9-119">
          <mxGeometry relative="1" as="geometry" />
        </mxCell>
        <mxCell id="6ljAMsKgbwpQDlD5m_k1-51" value="" style="shape=table;startSize=0;container=1;collapsible=0;childLayout=tableLayout;" vertex="1" parent="1">
          <mxGeometry x="1579" y="50" width="230" height="160" as="geometry" />
        </mxCell>
        <mxCell id="6ljAMsKgbwpQDlD5m_k1-52" value="" style="shape=tableRow;horizontal=0;startSize=0;swimlaneHead=0;swimlaneBody=0;strokeColor=inherit;top=0;left=0;bottom=0;right=0;collapsible=0;dropTarget=0;fillColor=none;points=[[0,0.5],[1,0.5]];portConstraint=eastwest;" vertex="1" parent="6ljAMsKgbwpQDlD5m_k1-51">
          <mxGeometry width="230" height="40" as="geometry" />
        </mxCell>
        <mxCell id="6ljAMsKgbwpQDlD5m_k1-53" value="Destination" style="shape=partialRectangle;html=1;whiteSpace=wrap;connectable=0;strokeColor=#666666;overflow=hidden;fillColor=#f5f5f5;top=0;left=0;bottom=0;right=1;pointerEvents=1;align=center;fontColor=#333333;" vertex="1" parent="6ljAMsKgbwpQDlD5m_k1-52">
          <mxGeometry width="115" height="40" as="geometry">
            <mxRectangle width="115" height="40" as="alternateBounds" />
          </mxGeometry>
        </mxCell>
        <mxCell id="6ljAMsKgbwpQDlD5m_k1-54" value="Target" style="shape=partialRectangle;html=1;whiteSpace=wrap;connectable=0;strokeColor=#666666;overflow=hidden;fillColor=#f5f5f5;top=0;left=1;bottom=0;right=0;pointerEvents=1;fontColor=#333333;" vertex="1" parent="6ljAMsKgbwpQDlD5m_k1-52">
          <mxGeometry x="115" width="115" height="40" as="geometry">
            <mxRectangle width="115" height="40" as="alternateBounds" />
          </mxGeometry>
        </mxCell>
        <mxCell id="6ljAMsKgbwpQDlD5m_k1-55" style="shape=tableRow;horizontal=0;startSize=0;swimlaneHead=0;swimlaneBody=0;strokeColor=inherit;top=0;left=0;bottom=0;right=0;collapsible=0;dropTarget=0;fillColor=none;points=[[0,0.5],[1,0.5]];portConstraint=eastwest;" vertex="1" parent="6ljAMsKgbwpQDlD5m_k1-51">
          <mxGeometry y="40" width="230" height="40" as="geometry" />
        </mxCell>
        <mxCell id="6ljAMsKgbwpQDlD5m_k1-56" value="Hub VPC" style="shape=partialRectangle;html=1;whiteSpace=wrap;connectable=0;strokeColor=inherit;overflow=hidden;fillColor=none;top=0;left=0;bottom=0;right=0;pointerEvents=1;" vertex="1" parent="6ljAMsKgbwpQDlD5m_k1-55">
          <mxGeometry width="115" height="40" as="geometry">
            <mxRectangle width="115" height="40" as="alternateBounds" />
          </mxGeometry>
        </mxCell>
        <mxCell id="6ljAMsKgbwpQDlD5m_k1-57" value="local" style="shape=partialRectangle;html=1;whiteSpace=wrap;connectable=0;strokeColor=inherit;overflow=hidden;fillColor=none;top=0;left=0;bottom=0;right=0;pointerEvents=1;" vertex="1" parent="6ljAMsKgbwpQDlD5m_k1-55">
          <mxGeometry x="115" width="115" height="40" as="geometry">
            <mxRectangle width="115" height="40" as="alternateBounds" />
          </mxGeometry>
        </mxCell>
        <mxCell id="6ljAMsKgbwpQDlD5m_k1-58" value="" style="shape=tableRow;horizontal=0;startSize=0;swimlaneHead=0;swimlaneBody=0;strokeColor=inherit;top=0;left=0;bottom=0;right=0;collapsible=0;dropTarget=0;fillColor=none;points=[[0,0.5],[1,0.5]];portConstraint=eastwest;" vertex="1" parent="6ljAMsKgbwpQDlD5m_k1-51">
          <mxGeometry y="80" width="230" height="40" as="geometry" />
        </mxCell>
        <mxCell id="6ljAMsKgbwpQDlD5m_k1-59" value="0.0.0.0/0" style="shape=partialRectangle;html=1;whiteSpace=wrap;connectable=0;strokeColor=inherit;overflow=hidden;fillColor=none;top=0;left=0;bottom=0;right=0;pointerEvents=1;" vertex="1" parent="6ljAMsKgbwpQDlD5m_k1-58">
          <mxGeometry width="115" height="40" as="geometry">
            <mxRectangle width="115" height="40" as="alternateBounds" />
          </mxGeometry>
        </mxCell>
        <mxCell id="6ljAMsKgbwpQDlD5m_k1-60" value="nat-id" style="shape=partialRectangle;html=1;whiteSpace=wrap;connectable=0;strokeColor=inherit;overflow=hidden;fillColor=none;top=0;left=0;bottom=0;right=0;pointerEvents=1;" vertex="1" parent="6ljAMsKgbwpQDlD5m_k1-58">
          <mxGeometry x="115" width="115" height="40" as="geometry">
            <mxRectangle width="115" height="40" as="alternateBounds" />
          </mxGeometry>
        </mxCell>
        <mxCell id="6ljAMsKgbwpQDlD5m_k1-61" style="shape=tableRow;horizontal=0;startSize=0;swimlaneHead=0;swimlaneBody=0;strokeColor=inherit;top=0;left=0;bottom=0;right=0;collapsible=0;dropTarget=0;fillColor=none;points=[[0,0.5],[1,0.5]];portConstraint=eastwest;" vertex="1" parent="6ljAMsKgbwpQDlD5m_k1-51">
          <mxGeometry y="120" width="230" height="40" as="geometry" />
        </mxCell>
        <mxCell id="6ljAMsKgbwpQDlD5m_k1-62" value="172.16.0.0/12" style="shape=partialRectangle;html=1;whiteSpace=wrap;connectable=0;strokeColor=#9673a6;overflow=hidden;fillColor=#e1d5e7;top=0;left=0;bottom=0;right=0;pointerEvents=1;" vertex="1" parent="6ljAMsKgbwpQDlD5m_k1-61">
          <mxGeometry width="115" height="40" as="geometry">
            <mxRectangle width="115" height="40" as="alternateBounds" />
          </mxGeometry>
        </mxCell>
        <mxCell id="6ljAMsKgbwpQDlD5m_k1-63" value="tgw-id " style="shape=partialRectangle;html=1;whiteSpace=wrap;connectable=0;strokeColor=#9673a6;overflow=hidden;fillColor=#e1d5e7;top=0;left=0;bottom=0;right=0;pointerEvents=1;" vertex="1" parent="6ljAMsKgbwpQDlD5m_k1-61">
          <mxGeometry x="115" width="115" height="40" as="geometry">
            <mxRectangle width="115" height="40" as="alternateBounds" />
          </mxGeometry>
        </mxCell>
        <mxCell id="6ljAMsKgbwpQDlD5m_k1-64" style="edgeStyle=orthogonalEdgeStyle;rounded=0;orthogonalLoop=1;jettySize=auto;html=1;dashed=1;strokeColor=light-dark(#613583, #ededed);" edge="1" parent="1" target="6ljAMsKgbwpQDlD5m_k1-52" source="6ljAMsKgbwpQDlD5m_k1-48">
          <mxGeometry relative="1" as="geometry">
            <mxPoint x="1470" y="229" as="sourcePoint" />
            <Array as="points">
              <mxPoint x="1510" y="70" />
            </Array>
          </mxGeometry>
        </mxCell>
        <mxCell id="6ljAMsKgbwpQDlD5m_k1-66" style="edgeStyle=orthogonalEdgeStyle;rounded=0;orthogonalLoop=1;jettySize=auto;html=1;startArrow=classic;startFill=1;" edge="1" parent="1" source="6ljAMsKgbwpQDlD5m_k1-67" target="6ljAMsKgbwpQDlD5m_k1-70">
          <mxGeometry relative="1" as="geometry" />
        </mxCell>
        <mxCell id="6ljAMsKgbwpQDlD5m_k1-67" value="&lt;div&gt;Spoke VPC&lt;/div&gt;&lt;div&gt;(172.16.0.0/12)&lt;/div&gt;" style="sketch=0;points=[[0,0,0],[0.25,0,0],[0.5,0,0],[0.75,0,0],[1,0,0],[0,1,0],[0.25,1,0],[0.5,1,0],[0.75,1,0],[1,1,0],[0,0.25,0],[0,0.5,0],[0,0.75,0],[1,0.25,0],[1,0.5,0],[1,0.75,0]];outlineConnect=0;fontColor=#232F3E;fillColor=#8C4FFF;strokeColor=#ffffff;dashed=0;verticalLabelPosition=bottom;verticalAlign=top;align=center;html=1;fontSize=12;fontStyle=0;aspect=fixed;shape=mxgraph.aws4.resourceIcon;resIcon=mxgraph.aws4.vpc;" vertex="1" parent="1">
          <mxGeometry x="890" y="391" width="78" height="78" as="geometry" />
        </mxCell>
        <mxCell id="6ljAMsKgbwpQDlD5m_k1-68" value="&lt;div&gt;Hub&lt;/div&gt;&lt;div&gt;transit gateway&lt;/div&gt;&lt;div&gt;attachment&lt;/div&gt;" style="sketch=0;outlineConnect=0;fontColor=#232F3E;gradientColor=none;fillColor=#8C4FFF;strokeColor=none;dashed=0;verticalLabelPosition=bottom;verticalAlign=top;align=center;html=1;fontSize=12;fontStyle=0;aspect=fixed;pointerEvents=1;shape=mxgraph.aws4.transit_gateway_attachment;" vertex="1" parent="1">
          <mxGeometry x="1190" y="391" width="78" height="78" as="geometry" />
        </mxCell>
        <mxCell id="6ljAMsKgbwpQDlD5m_k1-69" style="edgeStyle=orthogonalEdgeStyle;rounded=0;orthogonalLoop=1;jettySize=auto;html=1;startArrow=classic;startFill=1;" edge="1" parent="1" source="6ljAMsKgbwpQDlD5m_k1-70" target="6ljAMsKgbwpQDlD5m_k1-68">
          <mxGeometry relative="1" as="geometry" />
        </mxCell>
        <mxCell id="6ljAMsKgbwpQDlD5m_k1-70" value="Transit gateway" style="sketch=0;points=[[0,0,0],[0.25,0,0],[0.5,0,0],[0.75,0,0],[1,0,0],[0,1,0],[0.25,1,0],[0.5,1,0],[0.75,1,0],[1,1,0],[0,0.25,0],[0,0.5,0],[0,0.75,0],[1,0.25,0],[1,0.5,0],[1,0.75,0]];outlineConnect=0;fontColor=#232F3E;fillColor=#8C4FFF;strokeColor=#ffffff;dashed=0;verticalLabelPosition=bottom;verticalAlign=top;align=center;html=1;fontSize=12;fontStyle=0;aspect=fixed;shape=mxgraph.aws4.resourceIcon;resIcon=mxgraph.aws4.transit_gateway;" vertex="1" parent="1">
          <mxGeometry x="1030" y="391" width="78" height="78" as="geometry" />
        </mxCell>
      </root>
    </mxGraphModel>
  </diagram>
</mxfile>
